<svg xmlns="http://www.w3.org/2000/svg" viewBox="0 0 1600 900" role="img" aria-labelledby="title desc">
  <title id="title">Cidade Seguru</title>
  <desc id="desc">Placeholder visual for a fictional civic incident reporting prototype.</desc>
  <rect width="1600" height="900" fill="#0b1b28"/>
  <path d="M0 150h1600M0 310h1600M0 470h1600M0 630h1600M0 790h1600M180 0v900M420 0v900M660 0v900M900 0v900M1140 0v900M1380 0v900" stroke="#23404a" stroke-width="3" opacity=".75"/>
  <path d="M70 700c190-150 240-300 450-250s270 30 400-120 260-115 610-220M20 280c210 80 310 50 480 210s330 120 500 190 340 20 580-130" fill="none" stroke="#63e5be" stroke-width="15" stroke-linecap="round" opacity=".68"/>
  <circle cx="490" cy="446" r="25" fill="#f4b96e"/><circle cx="895" cy="323" r="25" fill="#63e5be"/><circle cx="1190" cy="520" r="25" fill="#f58770"/>
  <rect x="72" y="70" width="530" height="170" rx="24" fill="#122c37" stroke="#3d626b" stroke-width="3"/>
  <text x="112" y="142" fill="#63e5be" font-family="monospace" font-size="24" letter-spacing="5">PROJECT / 06</text>
  <text x="108" y="195" fill="#eff5f4" font-family="sans-serif" font-size="48" font-weight="700">Cidade Seguru</text>
  <rect x="1110" y="685" width="398" height="126" rx="18" fill="#122c37" stroke="#3d626b" stroke-width="3"/>
  <text x="1150" y="738" fill="#99b1b3" font-family="monospace" font-size="20">FICTIONAL DATA</text>
  <text x="1150" y="778" fill="#eff5f4" font-family="sans-serif" font-size="24">Report · Reference · Insight</text>
</svg>
